<mxfile host="app.diagrams.net" modified="2023-09-14T20:31:42.148Z" agent="Mozilla/5.0 (Windows NT 10.0; Win64; x64) AppleWebKit/537.36 (KHTML, like Gecko) Chrome/116.0.0.0 Safari/537.36" etag="OMc2WcSxqguvn0ktyeyS" version="21.7.5" type="google">
  <diagram name="Página-1" id="0az6wZLCSf77rpC9AN41">
    <mxGraphModel grid="1" page="1" gridSize="10" guides="1" tooltips="1" connect="1" arrows="1" fold="1" pageScale="1" pageWidth="827" pageHeight="1169" math="0" shadow="0">
      <root>
        <mxCell id="0" />
        <mxCell id="1" parent="0" />
        <mxCell id="qx9Za7n5SHYA4SdpHbom-1" value="&lt;font style=&quot;vertical-align: inherit;&quot;&gt;&lt;font style=&quot;vertical-align: inherit;&quot;&gt;USUÁRIO&lt;/font&gt;&lt;/font&gt;" style="swimlane;fontStyle=0;childLayout=stackLayout;horizontal=1;startSize=30;horizontalStack=0;resizeParent=1;resizeParentMax=0;resizeLast=0;collapsible=1;marginBottom=0;whiteSpace=wrap;html=1;rounded=0;labelBackgroundColor=none;fillColor=#FAE5C7;strokeColor=#0F8B8D;fontColor=#143642;" vertex="1" parent="1">
          <mxGeometry x="26" y="48" width="140" height="270" as="geometry" />
        </mxCell>
        <mxCell id="qx9Za7n5SHYA4SdpHbom-2" value="&lt;font style=&quot;vertical-align: inherit;&quot;&gt;&lt;font style=&quot;vertical-align: inherit;&quot;&gt;COD_USUÁRIO&lt;/font&gt;&lt;/font&gt;" style="text;strokeColor=none;fillColor=none;align=left;verticalAlign=middle;spacingLeft=4;spacingRight=4;overflow=hidden;points=[[0,0.5],[1,0.5]];portConstraint=eastwest;rotatable=0;whiteSpace=wrap;html=1;rounded=0;labelBackgroundColor=none;fontColor=#143642;" vertex="1" parent="qx9Za7n5SHYA4SdpHbom-1">
          <mxGeometry y="30" width="140" height="30" as="geometry" />
        </mxCell>
        <mxCell id="qx9Za7n5SHYA4SdpHbom-3" value="&lt;font style=&quot;vertical-align: inherit;&quot;&gt;&lt;font style=&quot;vertical-align: inherit;&quot;&gt;NOME&lt;span style=&quot;white-space: pre;&quot;&gt;&#x9;&lt;/span&gt;&lt;span style=&quot;white-space: pre;&quot;&gt;&#x9;&lt;/span&gt;&lt;/font&gt;&lt;/font&gt;" style="text;strokeColor=none;fillColor=none;align=left;verticalAlign=middle;spacingLeft=4;spacingRight=4;overflow=hidden;points=[[0,0.5],[1,0.5]];portConstraint=eastwest;rotatable=0;whiteSpace=wrap;html=1;rounded=0;labelBackgroundColor=none;fontColor=#143642;" vertex="1" parent="qx9Za7n5SHYA4SdpHbom-1">
          <mxGeometry y="60" width="140" height="30" as="geometry" />
        </mxCell>
        <mxCell id="qx9Za7n5SHYA4SdpHbom-7" value="&lt;font style=&quot;vertical-align: inherit;&quot;&gt;&lt;font style=&quot;vertical-align: inherit;&quot;&gt;LOGIN&amp;nbsp;&lt;/font&gt;&lt;/font&gt;" style="text;strokeColor=none;fillColor=none;align=left;verticalAlign=middle;spacingLeft=4;spacingRight=4;overflow=hidden;points=[[0,0.5],[1,0.5]];portConstraint=eastwest;rotatable=0;whiteSpace=wrap;html=1;rounded=0;labelBackgroundColor=none;fontColor=#143642;" vertex="1" parent="qx9Za7n5SHYA4SdpHbom-1">
          <mxGeometry y="90" width="140" height="30" as="geometry" />
        </mxCell>
        <mxCell id="qx9Za7n5SHYA4SdpHbom-5" value="&lt;font style=&quot;vertical-align: inherit;&quot;&gt;&lt;font style=&quot;vertical-align: inherit;&quot;&gt;&lt;font style=&quot;vertical-align: inherit;&quot;&gt;&lt;font style=&quot;vertical-align: inherit;&quot;&gt;SENHA&lt;/font&gt;&lt;/font&gt;&lt;/font&gt;&lt;/font&gt;" style="text;strokeColor=none;fillColor=none;align=left;verticalAlign=middle;spacingLeft=4;spacingRight=4;overflow=hidden;points=[[0,0.5],[1,0.5]];portConstraint=eastwest;rotatable=0;whiteSpace=wrap;html=1;rounded=0;labelBackgroundColor=none;fontColor=#143642;" vertex="1" parent="qx9Za7n5SHYA4SdpHbom-1">
          <mxGeometry y="120" width="140" height="30" as="geometry" />
        </mxCell>
        <mxCell id="qx9Za7n5SHYA4SdpHbom-8" value="&lt;font style=&quot;vertical-align: inherit;&quot;&gt;&lt;font style=&quot;vertical-align: inherit;&quot;&gt;CPF&lt;/font&gt;&lt;/font&gt;" style="text;strokeColor=none;fillColor=none;align=left;verticalAlign=middle;spacingLeft=4;spacingRight=4;overflow=hidden;points=[[0,0.5],[1,0.5]];portConstraint=eastwest;rotatable=0;whiteSpace=wrap;html=1;rounded=0;labelBackgroundColor=none;fontColor=#143642;" vertex="1" parent="qx9Za7n5SHYA4SdpHbom-1">
          <mxGeometry y="150" width="140" height="30" as="geometry" />
        </mxCell>
        <mxCell id="qx9Za7n5SHYA4SdpHbom-9" value="&lt;font style=&quot;vertical-align: inherit;&quot;&gt;&lt;font style=&quot;vertical-align: inherit;&quot;&gt;EMAIL&lt;/font&gt;&lt;/font&gt;" style="text;strokeColor=none;fillColor=none;align=left;verticalAlign=middle;spacingLeft=4;spacingRight=4;overflow=hidden;points=[[0,0.5],[1,0.5]];portConstraint=eastwest;rotatable=0;whiteSpace=wrap;html=1;rounded=0;labelBackgroundColor=none;fontColor=#143642;" vertex="1" parent="qx9Za7n5SHYA4SdpHbom-1">
          <mxGeometry y="180" width="140" height="30" as="geometry" />
        </mxCell>
        <mxCell id="qx9Za7n5SHYA4SdpHbom-12" value="&lt;font style=&quot;vertical-align: inherit;&quot;&gt;&lt;font style=&quot;vertical-align: inherit;&quot;&gt;ENDEREÇO&lt;/font&gt;&lt;/font&gt;" style="text;strokeColor=none;fillColor=none;align=left;verticalAlign=middle;spacingLeft=4;spacingRight=4;overflow=hidden;points=[[0,0.5],[1,0.5]];portConstraint=eastwest;rotatable=0;whiteSpace=wrap;html=1;rounded=0;labelBackgroundColor=none;fontColor=#143642;" vertex="1" parent="qx9Za7n5SHYA4SdpHbom-1">
          <mxGeometry y="210" width="140" height="30" as="geometry" />
        </mxCell>
        <mxCell id="qx9Za7n5SHYA4SdpHbom-11" value="&lt;font style=&quot;vertical-align: inherit;&quot;&gt;&lt;font style=&quot;vertical-align: inherit;&quot;&gt;TELEFONE&lt;/font&gt;&lt;/font&gt;" style="text;strokeColor=none;fillColor=none;align=left;verticalAlign=middle;spacingLeft=4;spacingRight=4;overflow=hidden;points=[[0,0.5],[1,0.5]];portConstraint=eastwest;rotatable=0;whiteSpace=wrap;html=1;rounded=0;labelBackgroundColor=none;fontColor=#143642;" vertex="1" parent="qx9Za7n5SHYA4SdpHbom-1">
          <mxGeometry y="240" width="140" height="30" as="geometry" />
        </mxCell>
        <mxCell id="qx9Za7n5SHYA4SdpHbom-14" value="&lt;font style=&quot;vertical-align: inherit;&quot;&gt;&lt;font style=&quot;vertical-align: inherit;&quot;&gt;&lt;font style=&quot;vertical-align: inherit;&quot;&gt;&lt;font style=&quot;vertical-align: inherit;&quot;&gt;PEDIDO_VENDA&lt;/font&gt;&lt;/font&gt;&lt;/font&gt;&lt;/font&gt;" style="swimlane;fontStyle=0;childLayout=stackLayout;horizontal=1;startSize=30;horizontalStack=0;resizeParent=1;resizeParentMax=0;resizeLast=0;collapsible=1;marginBottom=0;whiteSpace=wrap;html=1;rounded=0;labelBackgroundColor=none;fillColor=#FAE5C7;strokeColor=#0F8B8D;fontColor=#143642;" vertex="1" parent="1">
          <mxGeometry x="227" y="50" width="170" height="240" as="geometry" />
        </mxCell>
        <mxCell id="qx9Za7n5SHYA4SdpHbom-18" value="&lt;font style=&quot;vertical-align: inherit;&quot;&gt;&lt;font style=&quot;vertical-align: inherit;&quot;&gt;&lt;font style=&quot;vertical-align: inherit;&quot;&gt;&lt;font style=&quot;vertical-align: inherit;&quot;&gt;COD_PEDIDO_VENDA&lt;/font&gt;&lt;/font&gt;&lt;/font&gt;&lt;/font&gt;" style="text;strokeColor=none;fillColor=none;align=left;verticalAlign=middle;spacingLeft=4;spacingRight=4;overflow=hidden;points=[[0,0.5],[1,0.5]];portConstraint=eastwest;rotatable=0;whiteSpace=wrap;html=1;rounded=0;labelBackgroundColor=none;fontColor=#143642;" vertex="1" parent="qx9Za7n5SHYA4SdpHbom-14">
          <mxGeometry y="30" width="170" height="30" as="geometry" />
        </mxCell>
        <mxCell id="qx9Za7n5SHYA4SdpHbom-15" value="&lt;font style=&quot;vertical-align: inherit;&quot;&gt;&lt;font style=&quot;vertical-align: inherit;&quot;&gt;COD_USUÁRIO&lt;/font&gt;&lt;/font&gt;" style="text;strokeColor=none;fillColor=none;align=left;verticalAlign=middle;spacingLeft=4;spacingRight=4;overflow=hidden;points=[[0,0.5],[1,0.5]];portConstraint=eastwest;rotatable=0;whiteSpace=wrap;html=1;rounded=0;labelBackgroundColor=none;fontColor=#143642;" vertex="1" parent="qx9Za7n5SHYA4SdpHbom-14">
          <mxGeometry y="60" width="170" height="30" as="geometry" />
        </mxCell>
        <mxCell id="qx9Za7n5SHYA4SdpHbom-16" value="COD_SITUAÇÃO_PEDIDO" style="text;strokeColor=none;fillColor=none;align=left;verticalAlign=middle;spacingLeft=4;spacingRight=4;overflow=hidden;points=[[0,0.5],[1,0.5]];portConstraint=eastwest;rotatable=0;whiteSpace=wrap;html=1;rounded=0;labelBackgroundColor=none;fontColor=#143642;" vertex="1" parent="qx9Za7n5SHYA4SdpHbom-14">
          <mxGeometry y="90" width="170" height="30" as="geometry" />
        </mxCell>
        <mxCell id="qx9Za7n5SHYA4SdpHbom-21" value="COD_FORMA_PAGAMENTO" style="text;strokeColor=none;fillColor=none;align=left;verticalAlign=middle;spacingLeft=4;spacingRight=4;overflow=hidden;points=[[0,0.5],[1,0.5]];portConstraint=eastwest;rotatable=0;whiteSpace=wrap;html=1;rounded=0;labelBackgroundColor=none;fontColor=#143642;" vertex="1" parent="qx9Za7n5SHYA4SdpHbom-14">
          <mxGeometry y="120" width="170" height="30" as="geometry" />
        </mxCell>
        <mxCell id="qx9Za7n5SHYA4SdpHbom-20" value="DTA_PEDIDO" style="text;strokeColor=none;fillColor=none;align=left;verticalAlign=middle;spacingLeft=4;spacingRight=4;overflow=hidden;points=[[0,0.5],[1,0.5]];portConstraint=eastwest;rotatable=0;whiteSpace=wrap;html=1;rounded=0;labelBackgroundColor=none;fontColor=#143642;" vertex="1" parent="qx9Za7n5SHYA4SdpHbom-14">
          <mxGeometry y="150" width="170" height="30" as="geometry" />
        </mxCell>
        <mxCell id="qx9Za7n5SHYA4SdpHbom-22" value="HORA_PEDIDO" style="text;strokeColor=none;fillColor=none;align=left;verticalAlign=middle;spacingLeft=4;spacingRight=4;overflow=hidden;points=[[0,0.5],[1,0.5]];portConstraint=eastwest;rotatable=0;whiteSpace=wrap;html=1;rounded=0;labelBackgroundColor=none;fontColor=#143642;" vertex="1" parent="qx9Za7n5SHYA4SdpHbom-14">
          <mxGeometry y="180" width="170" height="30" as="geometry" />
        </mxCell>
        <mxCell id="qx9Za7n5SHYA4SdpHbom-17" value="VLR_PEDIDO" style="text;strokeColor=none;fillColor=none;align=left;verticalAlign=middle;spacingLeft=4;spacingRight=4;overflow=hidden;points=[[0,0.5],[1,0.5]];portConstraint=eastwest;rotatable=0;whiteSpace=wrap;html=1;rounded=0;labelBackgroundColor=none;fontColor=#143642;" vertex="1" parent="qx9Za7n5SHYA4SdpHbom-14">
          <mxGeometry y="210" width="170" height="30" as="geometry" />
        </mxCell>
        <mxCell id="qx9Za7n5SHYA4SdpHbom-23" value="&lt;font style=&quot;vertical-align: inherit;&quot;&gt;&lt;font style=&quot;vertical-align: inherit;&quot;&gt;&lt;font style=&quot;vertical-align: inherit;&quot;&gt;&lt;font style=&quot;vertical-align: inherit;&quot;&gt;FORMA_PAGAMENTO&lt;/font&gt;&lt;/font&gt;&lt;/font&gt;&lt;/font&gt;" style="swimlane;fontStyle=0;childLayout=stackLayout;horizontal=1;startSize=30;horizontalStack=0;resizeParent=1;resizeParentMax=0;resizeLast=0;collapsible=1;marginBottom=0;whiteSpace=wrap;html=1;rounded=0;labelBackgroundColor=none;fillColor=#FAE5C7;strokeColor=#0F8B8D;fontColor=#143642;" vertex="1" parent="1">
          <mxGeometry x="30" y="360" width="170" height="90" as="geometry" />
        </mxCell>
        <mxCell id="qx9Za7n5SHYA4SdpHbom-24" value="&lt;font style=&quot;vertical-align: inherit;&quot;&gt;&lt;font style=&quot;vertical-align: inherit;&quot;&gt;COD_FORMA_PAGAMENTO&lt;/font&gt;&lt;/font&gt;" style="text;strokeColor=none;fillColor=none;align=left;verticalAlign=middle;spacingLeft=4;spacingRight=4;overflow=hidden;points=[[0,0.5],[1,0.5]];portConstraint=eastwest;rotatable=0;whiteSpace=wrap;html=1;rounded=0;labelBackgroundColor=none;fontColor=#143642;" vertex="1" parent="qx9Za7n5SHYA4SdpHbom-23">
          <mxGeometry y="30" width="170" height="30" as="geometry" />
        </mxCell>
        <mxCell id="qx9Za7n5SHYA4SdpHbom-25" value="&lt;font style=&quot;vertical-align: inherit;&quot;&gt;&lt;font style=&quot;vertical-align: inherit;&quot;&gt;FORMA_PAGAMENTO&lt;/font&gt;&lt;/font&gt;" style="text;strokeColor=none;fillColor=none;align=left;verticalAlign=middle;spacingLeft=4;spacingRight=4;overflow=hidden;points=[[0,0.5],[1,0.5]];portConstraint=eastwest;rotatable=0;whiteSpace=wrap;html=1;rounded=0;labelBackgroundColor=none;fontColor=#143642;" vertex="1" parent="qx9Za7n5SHYA4SdpHbom-23">
          <mxGeometry y="60" width="170" height="30" as="geometry" />
        </mxCell>
        <mxCell id="qx9Za7n5SHYA4SdpHbom-28" value="SITUAÇÃO_PEDIDO" style="swimlane;fontStyle=0;childLayout=stackLayout;horizontal=1;startSize=30;horizontalStack=0;resizeParent=1;resizeParentMax=0;resizeLast=0;collapsible=1;marginBottom=0;whiteSpace=wrap;html=1;rounded=0;labelBackgroundColor=none;fillColor=#FAE5C7;strokeColor=#0F8B8D;fontColor=#143642;" vertex="1" parent="1">
          <mxGeometry x="241" y="344" width="160" height="90" as="geometry" />
        </mxCell>
        <mxCell id="qx9Za7n5SHYA4SdpHbom-29" value="COD_SITUAÇÃO_PEDIDO" style="text;strokeColor=none;fillColor=none;align=left;verticalAlign=middle;spacingLeft=4;spacingRight=4;overflow=hidden;points=[[0,0.5],[1,0.5]];portConstraint=eastwest;rotatable=0;whiteSpace=wrap;html=1;rounded=0;labelBackgroundColor=none;fontColor=#143642;" vertex="1" parent="qx9Za7n5SHYA4SdpHbom-28">
          <mxGeometry y="30" width="160" height="30" as="geometry" />
        </mxCell>
        <mxCell id="qx9Za7n5SHYA4SdpHbom-30" value="STATUS_PEDIDO" style="text;strokeColor=none;fillColor=none;align=left;verticalAlign=middle;spacingLeft=4;spacingRight=4;overflow=hidden;points=[[0,0.5],[1,0.5]];portConstraint=eastwest;rotatable=0;whiteSpace=wrap;html=1;rounded=0;labelBackgroundColor=none;fontColor=#143642;" vertex="1" parent="qx9Za7n5SHYA4SdpHbom-28">
          <mxGeometry y="60" width="160" height="30" as="geometry" />
        </mxCell>
        <mxCell id="qx9Za7n5SHYA4SdpHbom-34" value="" style="endArrow=none;html=1;rounded=0;exitX=1;exitY=0.5;exitDx=0;exitDy=0;entryX=0;entryY=0.5;entryDx=0;entryDy=0;labelBackgroundColor=none;strokeColor=#A8201A;fontColor=default;" edge="1" parent="1" source="qx9Za7n5SHYA4SdpHbom-2" target="qx9Za7n5SHYA4SdpHbom-15">
          <mxGeometry width="50" height="50" relative="1" as="geometry">
            <mxPoint x="180" y="120" as="sourcePoint" />
            <mxPoint x="230" y="70" as="targetPoint" />
          </mxGeometry>
        </mxCell>
        <mxCell id="qx9Za7n5SHYA4SdpHbom-35" value="" style="endArrow=none;html=1;rounded=0;exitX=1;exitY=0.5;exitDx=0;exitDy=0;entryX=0;entryY=0.5;entryDx=0;entryDy=0;labelBackgroundColor=none;strokeColor=#A8201A;fontColor=default;" edge="1" parent="1" source="qx9Za7n5SHYA4SdpHbom-24" target="qx9Za7n5SHYA4SdpHbom-21">
          <mxGeometry width="50" height="50" relative="1" as="geometry">
            <mxPoint x="220" y="500" as="sourcePoint" />
            <mxPoint x="270" y="450" as="targetPoint" />
          </mxGeometry>
        </mxCell>
        <mxCell id="qx9Za7n5SHYA4SdpHbom-36" value="ITENS_PEDIDO_COMPRA" style="swimlane;fontStyle=0;childLayout=stackLayout;horizontal=1;startSize=30;horizontalStack=0;resizeParent=1;resizeParentMax=0;resizeLast=0;collapsible=1;marginBottom=0;whiteSpace=wrap;html=1;rounded=0;labelBackgroundColor=none;fillColor=#FAE5C7;strokeColor=#0F8B8D;fontColor=#143642;" vertex="1" parent="1">
          <mxGeometry x="434" y="291" width="190" height="150" as="geometry" />
        </mxCell>
        <mxCell id="qx9Za7n5SHYA4SdpHbom-37" value="COD_ITENS_PEDIDO_COMPRA" style="text;strokeColor=none;fillColor=none;align=left;verticalAlign=middle;spacingLeft=4;spacingRight=4;overflow=hidden;points=[[0,0.5],[1,0.5]];portConstraint=eastwest;rotatable=0;whiteSpace=wrap;html=1;rounded=0;labelBackgroundColor=none;fontColor=#143642;" vertex="1" parent="qx9Za7n5SHYA4SdpHbom-36">
          <mxGeometry y="30" width="190" height="30" as="geometry" />
        </mxCell>
        <mxCell id="qx9Za7n5SHYA4SdpHbom-67" value="COD_PEDIDO_COMPRA" style="text;strokeColor=none;fillColor=none;align=left;verticalAlign=middle;spacingLeft=4;spacingRight=4;overflow=hidden;points=[[0,0.5],[1,0.5]];portConstraint=eastwest;rotatable=0;whiteSpace=wrap;html=1;rounded=0;labelBackgroundColor=none;fontColor=#143642;" vertex="1" parent="qx9Za7n5SHYA4SdpHbom-36">
          <mxGeometry y="60" width="190" height="30" as="geometry" />
        </mxCell>
        <mxCell id="qx9Za7n5SHYA4SdpHbom-38" value="COD_PRODUTO" style="text;strokeColor=none;fillColor=none;align=left;verticalAlign=middle;spacingLeft=4;spacingRight=4;overflow=hidden;points=[[0,0.5],[1,0.5]];portConstraint=eastwest;rotatable=0;whiteSpace=wrap;html=1;rounded=0;labelBackgroundColor=none;fontColor=#143642;" vertex="1" parent="qx9Za7n5SHYA4SdpHbom-36">
          <mxGeometry y="90" width="190" height="30" as="geometry" />
        </mxCell>
        <mxCell id="qx9Za7n5SHYA4SdpHbom-39" value="QTD_ITENS_PEDIDO_COMPRA" style="text;strokeColor=none;fillColor=none;align=left;verticalAlign=middle;spacingLeft=4;spacingRight=4;overflow=hidden;points=[[0,0.5],[1,0.5]];portConstraint=eastwest;rotatable=0;whiteSpace=wrap;html=1;rounded=0;labelBackgroundColor=none;fontColor=#143642;" vertex="1" parent="qx9Za7n5SHYA4SdpHbom-36">
          <mxGeometry y="120" width="190" height="30" as="geometry" />
        </mxCell>
        <mxCell id="qx9Za7n5SHYA4SdpHbom-42" value="PRODUTO" style="swimlane;fontStyle=0;childLayout=stackLayout;horizontal=1;startSize=30;horizontalStack=0;resizeParent=1;resizeParentMax=0;resizeLast=0;collapsible=1;marginBottom=0;whiteSpace=wrap;html=1;rounded=0;labelBackgroundColor=none;fillColor=#FAE5C7;strokeColor=#0F8B8D;fontColor=#143642;" vertex="1" parent="1">
          <mxGeometry x="651" y="50" width="160" height="180" as="geometry" />
        </mxCell>
        <mxCell id="qx9Za7n5SHYA4SdpHbom-43" value="COD_PRODUTO" style="text;strokeColor=none;fillColor=none;align=left;verticalAlign=middle;spacingLeft=4;spacingRight=4;overflow=hidden;points=[[0,0.5],[1,0.5]];portConstraint=eastwest;rotatable=0;whiteSpace=wrap;html=1;rounded=0;labelBackgroundColor=none;fontColor=#143642;" vertex="1" parent="qx9Za7n5SHYA4SdpHbom-42">
          <mxGeometry y="30" width="160" height="30" as="geometry" />
        </mxCell>
        <mxCell id="qx9Za7n5SHYA4SdpHbom-45" value="COD_TIPO_PRODUTO" style="text;strokeColor=none;fillColor=none;align=left;verticalAlign=middle;spacingLeft=4;spacingRight=4;overflow=hidden;points=[[0,0.5],[1,0.5]];portConstraint=eastwest;rotatable=0;whiteSpace=wrap;html=1;rounded=0;labelBackgroundColor=none;fontColor=#143642;" vertex="1" parent="qx9Za7n5SHYA4SdpHbom-42">
          <mxGeometry y="60" width="160" height="30" as="geometry" />
        </mxCell>
        <mxCell id="qx9Za7n5SHYA4SdpHbom-46" value="NOME_PRODUTO" style="text;strokeColor=none;fillColor=none;align=left;verticalAlign=middle;spacingLeft=4;spacingRight=4;overflow=hidden;points=[[0,0.5],[1,0.5]];portConstraint=eastwest;rotatable=0;whiteSpace=wrap;html=1;rounded=0;labelBackgroundColor=none;fontColor=#143642;" vertex="1" parent="qx9Za7n5SHYA4SdpHbom-42">
          <mxGeometry y="90" width="160" height="30" as="geometry" />
        </mxCell>
        <mxCell id="qx9Za7n5SHYA4SdpHbom-48" value="VLR_PRODUTO_COMPRA" style="text;strokeColor=none;fillColor=none;align=left;verticalAlign=middle;spacingLeft=4;spacingRight=4;overflow=hidden;points=[[0,0.5],[1,0.5]];portConstraint=eastwest;rotatable=0;whiteSpace=wrap;html=1;rounded=0;labelBackgroundColor=none;fontColor=#143642;" vertex="1" parent="qx9Za7n5SHYA4SdpHbom-42">
          <mxGeometry y="120" width="160" height="30" as="geometry" />
        </mxCell>
        <mxCell id="qx9Za7n5SHYA4SdpHbom-49" value="VLR_PRODUTO_VENDA" style="text;strokeColor=none;fillColor=none;align=left;verticalAlign=middle;spacingLeft=4;spacingRight=4;overflow=hidden;points=[[0,0.5],[1,0.5]];portConstraint=eastwest;rotatable=0;whiteSpace=wrap;html=1;rounded=0;labelBackgroundColor=none;fontColor=#143642;" vertex="1" parent="qx9Za7n5SHYA4SdpHbom-42">
          <mxGeometry y="150" width="160" height="30" as="geometry" />
        </mxCell>
        <mxCell id="qx9Za7n5SHYA4SdpHbom-47" value="PEDIDO_COMPRA" style="swimlane;fontStyle=0;childLayout=stackLayout;horizontal=1;startSize=30;horizontalStack=0;resizeParent=1;resizeParentMax=0;resizeLast=0;collapsible=1;marginBottom=0;whiteSpace=wrap;html=1;fillColor=#FAE5C7;strokeColor=#0F8B8D;rounded=0;labelBackgroundColor=none;fontColor=#143642;" vertex="1" parent="1">
          <mxGeometry x="642" y="434" width="150" height="90" as="geometry" />
        </mxCell>
        <mxCell id="qx9Za7n5SHYA4SdpHbom-56" value="COD_PEDIDO_COMPRA" style="text;strokeColor=none;fillColor=none;align=left;verticalAlign=middle;spacingLeft=4;spacingRight=4;overflow=hidden;points=[[0,0.5],[1,0.5]];portConstraint=eastwest;rotatable=0;whiteSpace=wrap;html=1;rounded=0;labelBackgroundColor=none;fontColor=#143642;" vertex="1" parent="qx9Za7n5SHYA4SdpHbom-47">
          <mxGeometry y="30" width="150" height="30" as="geometry" />
        </mxCell>
        <mxCell id="qx9Za7n5SHYA4SdpHbom-50" value="COD_FORNECEDOR" style="text;strokeColor=none;fillColor=none;align=left;verticalAlign=middle;spacingLeft=4;spacingRight=4;overflow=hidden;points=[[0,0.5],[1,0.5]];portConstraint=eastwest;rotatable=0;whiteSpace=wrap;html=1;rounded=0;labelBackgroundColor=none;fontColor=#143642;" vertex="1" parent="qx9Za7n5SHYA4SdpHbom-47">
          <mxGeometry y="60" width="150" height="30" as="geometry" />
        </mxCell>
        <mxCell id="qx9Za7n5SHYA4SdpHbom-51" value="" style="endArrow=none;html=1;rounded=0;exitX=1;exitY=0.5;exitDx=0;exitDy=0;entryX=0;entryY=0.5;entryDx=0;entryDy=0;labelBackgroundColor=none;strokeColor=#A8201A;fontColor=default;" edge="1" parent="1" source="qx9Za7n5SHYA4SdpHbom-87" target="qx9Za7n5SHYA4SdpHbom-43">
          <mxGeometry width="50" height="50" relative="1" as="geometry">
            <mxPoint x="600" y="310" as="sourcePoint" />
            <mxPoint x="650" y="260" as="targetPoint" />
          </mxGeometry>
        </mxCell>
        <mxCell id="qx9Za7n5SHYA4SdpHbom-53" value="TIPO_PRODUTO" style="swimlane;fontStyle=0;childLayout=stackLayout;horizontal=1;startSize=30;horizontalStack=0;resizeParent=1;resizeParentMax=0;resizeLast=0;collapsible=1;marginBottom=0;whiteSpace=wrap;html=1;rounded=0;labelBackgroundColor=none;fillColor=#FAE5C7;strokeColor=#0F8B8D;fontColor=#143642;" vertex="1" parent="1">
          <mxGeometry x="649" y="300" width="140" height="90" as="geometry" />
        </mxCell>
        <mxCell id="qx9Za7n5SHYA4SdpHbom-54" value="COD_TIPO_PRODUTO" style="text;strokeColor=none;fillColor=none;align=left;verticalAlign=middle;spacingLeft=4;spacingRight=4;overflow=hidden;points=[[0,0.5],[1,0.5]];portConstraint=eastwest;rotatable=0;whiteSpace=wrap;html=1;rounded=0;labelBackgroundColor=none;fontColor=#143642;" vertex="1" parent="qx9Za7n5SHYA4SdpHbom-53">
          <mxGeometry y="30" width="140" height="30" as="geometry" />
        </mxCell>
        <mxCell id="qx9Za7n5SHYA4SdpHbom-55" value="DESCRIÇÃO" style="text;strokeColor=none;fillColor=none;align=left;verticalAlign=middle;spacingLeft=4;spacingRight=4;overflow=hidden;points=[[0,0.5],[1,0.5]];portConstraint=eastwest;rotatable=0;whiteSpace=wrap;html=1;rounded=0;labelBackgroundColor=none;fontColor=#143642;" vertex="1" parent="qx9Za7n5SHYA4SdpHbom-53">
          <mxGeometry y="60" width="140" height="30" as="geometry" />
        </mxCell>
        <mxCell id="qx9Za7n5SHYA4SdpHbom-59" value="" style="endArrow=none;html=1;rounded=0;entryX=1;entryY=0.5;entryDx=0;entryDy=0;exitX=1;exitY=0.5;exitDx=0;exitDy=0;labelBackgroundColor=none;strokeColor=#A8201A;fontColor=default;" edge="1" parent="1" source="qx9Za7n5SHYA4SdpHbom-54" target="qx9Za7n5SHYA4SdpHbom-45">
          <mxGeometry width="50" height="50" relative="1" as="geometry">
            <mxPoint x="799" y="340" as="sourcePoint" />
            <mxPoint x="827" y="294" as="targetPoint" />
            <Array as="points">
              <mxPoint x="820" y="250" />
            </Array>
          </mxGeometry>
        </mxCell>
        <mxCell id="qx9Za7n5SHYA4SdpHbom-60" value="LOJA" style="swimlane;fontStyle=0;childLayout=stackLayout;horizontal=1;startSize=30;horizontalStack=0;resizeParent=1;resizeParentMax=0;resizeLast=0;collapsible=1;marginBottom=0;whiteSpace=wrap;html=1;fillColor=#FAE5C7;strokeColor=#0F8B8D;rounded=0;labelBackgroundColor=none;fontColor=#143642;" vertex="1" parent="1">
          <mxGeometry x="30" y="500" width="140" height="150" as="geometry" />
        </mxCell>
        <mxCell id="qx9Za7n5SHYA4SdpHbom-61" value="COD_LOJA" style="text;strokeColor=none;fillColor=none;align=left;verticalAlign=middle;spacingLeft=4;spacingRight=4;overflow=hidden;points=[[0,0.5],[1,0.5]];portConstraint=eastwest;rotatable=0;whiteSpace=wrap;html=1;rounded=0;labelBackgroundColor=none;fontColor=#143642;" vertex="1" parent="qx9Za7n5SHYA4SdpHbom-60">
          <mxGeometry y="30" width="140" height="30" as="geometry" />
        </mxCell>
        <mxCell id="qx9Za7n5SHYA4SdpHbom-62" value="NOME_LOJA" style="text;strokeColor=none;fillColor=none;align=left;verticalAlign=middle;spacingLeft=4;spacingRight=4;overflow=hidden;points=[[0,0.5],[1,0.5]];portConstraint=eastwest;rotatable=0;whiteSpace=wrap;html=1;rounded=0;labelBackgroundColor=none;fontColor=#143642;" vertex="1" parent="qx9Za7n5SHYA4SdpHbom-60">
          <mxGeometry y="60" width="140" height="30" as="geometry" />
        </mxCell>
        <mxCell id="qx9Za7n5SHYA4SdpHbom-63" value="END_LOJA" style="text;strokeColor=none;fillColor=none;align=left;verticalAlign=middle;spacingLeft=4;spacingRight=4;overflow=hidden;points=[[0,0.5],[1,0.5]];portConstraint=eastwest;rotatable=0;whiteSpace=wrap;html=1;rounded=0;labelBackgroundColor=none;fontColor=#143642;" vertex="1" parent="qx9Za7n5SHYA4SdpHbom-60">
          <mxGeometry y="90" width="140" height="30" as="geometry" />
        </mxCell>
        <mxCell id="qx9Za7n5SHYA4SdpHbom-66" value="TEL_LOJA" style="text;strokeColor=none;fillColor=none;align=left;verticalAlign=middle;spacingLeft=4;spacingRight=4;overflow=hidden;points=[[0,0.5],[1,0.5]];portConstraint=eastwest;rotatable=0;whiteSpace=wrap;html=1;rounded=0;labelBackgroundColor=none;fontColor=#143642;" vertex="1" parent="qx9Za7n5SHYA4SdpHbom-60">
          <mxGeometry y="120" width="140" height="30" as="geometry" />
        </mxCell>
        <mxCell id="qx9Za7n5SHYA4SdpHbom-70" value="COTAÇÃO" style="swimlane;fontStyle=0;childLayout=stackLayout;horizontal=1;startSize=30;horizontalStack=0;resizeParent=1;resizeParentMax=0;resizeLast=0;collapsible=1;marginBottom=0;whiteSpace=wrap;html=1;labelBackgroundColor=none;fillColor=#FAE5C7;strokeColor=#0F8B8D;fontColor=#143642;" vertex="1" parent="1">
          <mxGeometry x="452" y="478" width="140" height="180" as="geometry" />
        </mxCell>
        <mxCell id="qx9Za7n5SHYA4SdpHbom-71" value="COD_COTAÇÃO" style="text;strokeColor=none;fillColor=none;align=left;verticalAlign=middle;spacingLeft=4;spacingRight=4;overflow=hidden;points=[[0,0.5],[1,0.5]];portConstraint=eastwest;rotatable=0;whiteSpace=wrap;html=1;labelBackgroundColor=none;fontColor=#143642;" vertex="1" parent="qx9Za7n5SHYA4SdpHbom-70">
          <mxGeometry y="30" width="140" height="30" as="geometry" />
        </mxCell>
        <mxCell id="qx9Za7n5SHYA4SdpHbom-72" value="COD_PRODUTO" style="text;strokeColor=none;fillColor=none;align=left;verticalAlign=middle;spacingLeft=4;spacingRight=4;overflow=hidden;points=[[0,0.5],[1,0.5]];portConstraint=eastwest;rotatable=0;whiteSpace=wrap;html=1;labelBackgroundColor=none;fontColor=#143642;" vertex="1" parent="qx9Za7n5SHYA4SdpHbom-70">
          <mxGeometry y="60" width="140" height="30" as="geometry" />
        </mxCell>
        <mxCell id="qx9Za7n5SHYA4SdpHbom-76" value="COD_FORNECEDOR" style="text;strokeColor=none;fillColor=none;align=left;verticalAlign=middle;spacingLeft=4;spacingRight=4;overflow=hidden;points=[[0,0.5],[1,0.5]];portConstraint=eastwest;rotatable=0;whiteSpace=wrap;html=1;labelBackgroundColor=none;fontColor=#143642;" vertex="1" parent="qx9Za7n5SHYA4SdpHbom-70">
          <mxGeometry y="90" width="140" height="30" as="geometry" />
        </mxCell>
        <mxCell id="qx9Za7n5SHYA4SdpHbom-77" value="VLR_COTAÇÃO" style="text;strokeColor=none;fillColor=none;align=left;verticalAlign=middle;spacingLeft=4;spacingRight=4;overflow=hidden;points=[[0,0.5],[1,0.5]];portConstraint=eastwest;rotatable=0;whiteSpace=wrap;html=1;labelBackgroundColor=none;fontColor=#143642;" vertex="1" parent="qx9Za7n5SHYA4SdpHbom-70">
          <mxGeometry y="120" width="140" height="30" as="geometry" />
        </mxCell>
        <mxCell id="qx9Za7n5SHYA4SdpHbom-75" value="UND_VENDA" style="text;strokeColor=none;fillColor=none;align=left;verticalAlign=middle;spacingLeft=4;spacingRight=4;overflow=hidden;points=[[0,0.5],[1,0.5]];portConstraint=eastwest;rotatable=0;whiteSpace=wrap;html=1;labelBackgroundColor=none;fontColor=#143642;" vertex="1" parent="qx9Za7n5SHYA4SdpHbom-70">
          <mxGeometry y="150" width="140" height="30" as="geometry" />
        </mxCell>
        <mxCell id="qx9Za7n5SHYA4SdpHbom-74" value="FORNECEDOR" style="swimlane;fontStyle=0;childLayout=stackLayout;horizontal=1;startSize=30;horizontalStack=0;resizeParent=1;resizeParentMax=0;resizeLast=0;collapsible=1;marginBottom=0;whiteSpace=wrap;html=1;labelBackgroundColor=none;fillColor=#FAE5C7;strokeColor=#0F8B8D;fontColor=#143642;" vertex="1" parent="1">
          <mxGeometry x="634" y="560" width="140" height="150" as="geometry" />
        </mxCell>
        <mxCell id="qx9Za7n5SHYA4SdpHbom-73" value="COD_FORNECEDOR" style="text;strokeColor=none;fillColor=none;align=left;verticalAlign=middle;spacingLeft=4;spacingRight=4;overflow=hidden;points=[[0,0.5],[1,0.5]];portConstraint=eastwest;rotatable=0;whiteSpace=wrap;html=1;labelBackgroundColor=none;fontColor=#143642;" vertex="1" parent="qx9Za7n5SHYA4SdpHbom-74">
          <mxGeometry y="30" width="140" height="30" as="geometry" />
        </mxCell>
        <mxCell id="qx9Za7n5SHYA4SdpHbom-81" value="NOME_FORNECEDOR" style="text;strokeColor=none;fillColor=none;align=left;verticalAlign=middle;spacingLeft=4;spacingRight=4;overflow=hidden;points=[[0,0.5],[1,0.5]];portConstraint=eastwest;rotatable=0;whiteSpace=wrap;html=1;labelBackgroundColor=none;fontColor=#143642;" vertex="1" parent="qx9Za7n5SHYA4SdpHbom-74">
          <mxGeometry y="60" width="140" height="30" as="geometry" />
        </mxCell>
        <mxCell id="qx9Za7n5SHYA4SdpHbom-82" value="END_FORNECEDOR" style="text;strokeColor=none;fillColor=none;align=left;verticalAlign=middle;spacingLeft=4;spacingRight=4;overflow=hidden;points=[[0,0.5],[1,0.5]];portConstraint=eastwest;rotatable=0;whiteSpace=wrap;html=1;labelBackgroundColor=none;fontColor=#143642;" vertex="1" parent="qx9Za7n5SHYA4SdpHbom-74">
          <mxGeometry y="90" width="140" height="30" as="geometry" />
        </mxCell>
        <mxCell id="qx9Za7n5SHYA4SdpHbom-83" value="TEL_FORNECEDOR" style="text;strokeColor=none;fillColor=none;align=left;verticalAlign=middle;spacingLeft=4;spacingRight=4;overflow=hidden;points=[[0,0.5],[1,0.5]];portConstraint=eastwest;rotatable=0;whiteSpace=wrap;html=1;labelBackgroundColor=none;fontColor=#143642;" vertex="1" parent="qx9Za7n5SHYA4SdpHbom-74">
          <mxGeometry y="120" width="140" height="30" as="geometry" />
        </mxCell>
        <mxCell id="qx9Za7n5SHYA4SdpHbom-78" value="" style="endArrow=none;html=1;entryX=0;entryY=0.5;entryDx=0;entryDy=0;exitX=1;exitY=0.5;exitDx=0;exitDy=0;labelBackgroundColor=none;strokeColor=#A8201A;fontColor=default;" edge="1" parent="1" source="qx9Za7n5SHYA4SdpHbom-76" target="qx9Za7n5SHYA4SdpHbom-73">
          <mxGeometry width="50" height="50" relative="1" as="geometry">
            <mxPoint x="560" y="560" as="sourcePoint" />
            <mxPoint x="610" y="510" as="targetPoint" />
          </mxGeometry>
        </mxCell>
        <mxCell id="qx9Za7n5SHYA4SdpHbom-84" value="ITENS_PEDIDO_VENDA" style="swimlane;fontStyle=0;childLayout=stackLayout;horizontal=1;startSize=30;horizontalStack=0;resizeParent=1;resizeParentMax=0;resizeLast=0;collapsible=1;marginBottom=0;whiteSpace=wrap;html=1;rounded=0;labelBackgroundColor=none;fillColor=#FAE5C7;strokeColor=#0F8B8D;fontColor=#143642;" vertex="1" parent="1">
          <mxGeometry x="441" y="52" width="182" height="150" as="geometry" />
        </mxCell>
        <mxCell id="qx9Za7n5SHYA4SdpHbom-85" value="COD_ITENS_PEDIDO_VENDA" style="text;strokeColor=none;fillColor=none;align=left;verticalAlign=middle;spacingLeft=4;spacingRight=4;overflow=hidden;points=[[0,0.5],[1,0.5]];portConstraint=eastwest;rotatable=0;whiteSpace=wrap;html=1;rounded=0;labelBackgroundColor=none;fontColor=#143642;" vertex="1" parent="qx9Za7n5SHYA4SdpHbom-84">
          <mxGeometry y="30" width="182" height="30" as="geometry" />
        </mxCell>
        <mxCell id="qx9Za7n5SHYA4SdpHbom-86" value="COD_PEDIDO_VENDA" style="text;strokeColor=none;fillColor=none;align=left;verticalAlign=middle;spacingLeft=4;spacingRight=4;overflow=hidden;points=[[0,0.5],[1,0.5]];portConstraint=eastwest;rotatable=0;whiteSpace=wrap;html=1;rounded=0;labelBackgroundColor=none;fontColor=#143642;" vertex="1" parent="qx9Za7n5SHYA4SdpHbom-84">
          <mxGeometry y="60" width="182" height="30" as="geometry" />
        </mxCell>
        <mxCell id="qx9Za7n5SHYA4SdpHbom-87" value="COD_PRODUTO" style="text;strokeColor=none;fillColor=none;align=left;verticalAlign=middle;spacingLeft=4;spacingRight=4;overflow=hidden;points=[[0,0.5],[1,0.5]];portConstraint=eastwest;rotatable=0;whiteSpace=wrap;html=1;rounded=0;labelBackgroundColor=none;fontColor=#143642;" vertex="1" parent="qx9Za7n5SHYA4SdpHbom-84">
          <mxGeometry y="90" width="182" height="30" as="geometry" />
        </mxCell>
        <mxCell id="qx9Za7n5SHYA4SdpHbom-88" value="QTD_ITENS_PEDIDO_VENDA" style="text;strokeColor=none;fillColor=none;align=left;verticalAlign=middle;spacingLeft=4;spacingRight=4;overflow=hidden;points=[[0,0.5],[1,0.5]];portConstraint=eastwest;rotatable=0;whiteSpace=wrap;html=1;rounded=0;labelBackgroundColor=none;fontColor=#143642;" vertex="1" parent="qx9Za7n5SHYA4SdpHbom-84">
          <mxGeometry y="120" width="182" height="30" as="geometry" />
        </mxCell>
        <mxCell id="qx9Za7n5SHYA4SdpHbom-89" value="" style="endArrow=none;html=1;rounded=0;strokeColor=#A8201A;fontColor=default;fillColor=#FAE5C7;exitX=1;exitY=0.5;exitDx=0;exitDy=0;entryX=1;entryY=0.5;entryDx=0;entryDy=0;labelBackgroundColor=none;" edge="1" parent="1" source="qx9Za7n5SHYA4SdpHbom-73" target="qx9Za7n5SHYA4SdpHbom-56">
          <mxGeometry width="50" height="50" relative="1" as="geometry">
            <mxPoint x="800" y="570" as="sourcePoint" />
            <mxPoint x="850" y="520" as="targetPoint" />
            <Array as="points">
              <mxPoint x="830" y="605" />
            </Array>
          </mxGeometry>
        </mxCell>
        <mxCell id="qx9Za7n5SHYA4SdpHbom-90" value="" style="endArrow=none;html=1;rounded=0;strokeColor=#A8201A;fontColor=default;fillColor=#FAE5C7;entryX=0;entryY=0.5;entryDx=0;entryDy=0;exitX=1;exitY=0.5;exitDx=0;exitDy=0;labelBackgroundColor=none;" edge="1" parent="1" source="qx9Za7n5SHYA4SdpHbom-38" target="qx9Za7n5SHYA4SdpHbom-43">
          <mxGeometry width="50" height="50" relative="1" as="geometry">
            <mxPoint x="580" y="510" as="sourcePoint" />
            <mxPoint x="630" y="460" as="targetPoint" />
          </mxGeometry>
        </mxCell>
        <mxCell id="qx9Za7n5SHYA4SdpHbom-91" value="RELATÓRIO" style="swimlane;fontStyle=0;childLayout=stackLayout;horizontal=1;startSize=30;horizontalStack=0;resizeParent=1;resizeParentMax=0;resizeLast=0;collapsible=1;marginBottom=0;whiteSpace=wrap;html=1;strokeColor=#0F8B8D;fontColor=#143642;fillColor=#FAE5C7;labelBackgroundColor=none;" vertex="1" parent="1">
          <mxGeometry x="242" y="470" width="150" height="210" as="geometry" />
        </mxCell>
        <mxCell id="qx9Za7n5SHYA4SdpHbom-92" value="COD_RELATÓRIO" style="text;strokeColor=none;fillColor=none;align=left;verticalAlign=middle;spacingLeft=4;spacingRight=4;overflow=hidden;points=[[0,0.5],[1,0.5]];portConstraint=eastwest;rotatable=0;whiteSpace=wrap;html=1;fontColor=#143642;labelBackgroundColor=none;" vertex="1" parent="qx9Za7n5SHYA4SdpHbom-91">
          <mxGeometry y="30" width="150" height="30" as="geometry" />
        </mxCell>
        <mxCell id="qx9Za7n5SHYA4SdpHbom-93" value="COD_LOJA" style="text;strokeColor=none;fillColor=none;align=left;verticalAlign=middle;spacingLeft=4;spacingRight=4;overflow=hidden;points=[[0,0.5],[1,0.5]];portConstraint=eastwest;rotatable=0;whiteSpace=wrap;html=1;fontColor=#143642;labelBackgroundColor=none;" vertex="1" parent="qx9Za7n5SHYA4SdpHbom-91">
          <mxGeometry y="60" width="150" height="30" as="geometry" />
        </mxCell>
        <mxCell id="qx9Za7n5SHYA4SdpHbom-94" value="COD_USUÁRIO" style="text;strokeColor=none;fillColor=none;align=left;verticalAlign=middle;spacingLeft=4;spacingRight=4;overflow=hidden;points=[[0,0.5],[1,0.5]];portConstraint=eastwest;rotatable=0;whiteSpace=wrap;html=1;fontColor=#143642;labelBackgroundColor=none;" vertex="1" parent="qx9Za7n5SHYA4SdpHbom-91">
          <mxGeometry y="90" width="150" height="30" as="geometry" />
        </mxCell>
        <mxCell id="qx9Za7n5SHYA4SdpHbom-98" value="VLR_TOTAL_VENDAS" style="text;strokeColor=none;fillColor=none;align=left;verticalAlign=middle;spacingLeft=4;spacingRight=4;overflow=hidden;points=[[0,0.5],[1,0.5]];portConstraint=eastwest;rotatable=0;whiteSpace=wrap;html=1;fontColor=#143642;labelBackgroundColor=none;" vertex="1" parent="qx9Za7n5SHYA4SdpHbom-91">
          <mxGeometry y="120" width="150" height="30" as="geometry" />
        </mxCell>
        <mxCell id="qx9Za7n5SHYA4SdpHbom-97" value="DTA_INÍCIO_RELATÓRIO" style="text;strokeColor=none;fillColor=none;align=left;verticalAlign=middle;spacingLeft=4;spacingRight=4;overflow=hidden;points=[[0,0.5],[1,0.5]];portConstraint=eastwest;rotatable=0;whiteSpace=wrap;html=1;fontColor=#143642;labelBackgroundColor=none;" vertex="1" parent="qx9Za7n5SHYA4SdpHbom-91">
          <mxGeometry y="150" width="150" height="30" as="geometry" />
        </mxCell>
        <mxCell id="qx9Za7n5SHYA4SdpHbom-96" value="DTA_FIM_RELATÓRIO" style="text;strokeColor=none;fillColor=none;align=left;verticalAlign=middle;spacingLeft=4;spacingRight=4;overflow=hidden;points=[[0,0.5],[1,0.5]];portConstraint=eastwest;rotatable=0;whiteSpace=wrap;html=1;fontColor=#143642;labelBackgroundColor=none;" vertex="1" parent="qx9Za7n5SHYA4SdpHbom-91">
          <mxGeometry y="180" width="150" height="30" as="geometry" />
        </mxCell>
        <mxCell id="qx9Za7n5SHYA4SdpHbom-99" value="" style="endArrow=none;html=1;rounded=0;strokeColor=#A8201A;fontColor=default;fillColor=#FAE5C7;exitX=1;exitY=0.5;exitDx=0;exitDy=0;entryX=0;entryY=0.5;entryDx=0;entryDy=0;labelBackgroundColor=none;" edge="1" parent="1" source="qx9Za7n5SHYA4SdpHbom-61" target="qx9Za7n5SHYA4SdpHbom-93">
          <mxGeometry width="50" height="50" relative="1" as="geometry">
            <mxPoint x="180" y="590" as="sourcePoint" />
            <mxPoint x="230" y="540" as="targetPoint" />
          </mxGeometry>
        </mxCell>
        <mxCell id="qx9Za7n5SHYA4SdpHbom-100" value="" style="endArrow=none;html=1;rounded=0;strokeColor=#A8201A;fontColor=default;fillColor=#FAE5C7;entryX=0;entryY=0.5;entryDx=0;entryDy=0;exitX=1;exitY=0.5;exitDx=0;exitDy=0;labelBackgroundColor=none;" edge="1" parent="1" source="qx9Za7n5SHYA4SdpHbom-67" target="qx9Za7n5SHYA4SdpHbom-56">
          <mxGeometry width="50" height="50" relative="1" as="geometry">
            <mxPoint x="560" y="510" as="sourcePoint" />
            <mxPoint x="610" y="460" as="targetPoint" />
          </mxGeometry>
        </mxCell>
        <mxCell id="qx9Za7n5SHYA4SdpHbom-101" value="" style="endArrow=none;html=1;rounded=0;strokeColor=#A8201A;fontColor=default;fillColor=#FAE5C7;entryX=1;entryY=0.5;entryDx=0;entryDy=0;exitX=1;exitY=0.5;exitDx=0;exitDy=0;labelBackgroundColor=none;" edge="1" parent="1" source="qx9Za7n5SHYA4SdpHbom-72" target="qx9Za7n5SHYA4SdpHbom-43">
          <mxGeometry width="50" height="50" relative="1" as="geometry">
            <mxPoint x="600" y="550" as="sourcePoint" />
            <mxPoint x="842" y="500" as="targetPoint" />
            <Array as="points">
              <mxPoint x="880" y="550" />
            </Array>
          </mxGeometry>
        </mxCell>
        <mxCell id="qx9Za7n5SHYA4SdpHbom-102" value="" style="endArrow=none;html=1;rounded=0;strokeColor=#A8201A;fontColor=default;fillColor=#FAE5C7;entryX=0;entryY=0.5;entryDx=0;entryDy=0;exitX=1;exitY=0.5;exitDx=0;exitDy=0;labelBackgroundColor=none;" edge="1" parent="1" source="qx9Za7n5SHYA4SdpHbom-2" target="qx9Za7n5SHYA4SdpHbom-94">
          <mxGeometry width="50" height="50" relative="1" as="geometry">
            <mxPoint x="170" y="620" as="sourcePoint" />
            <mxPoint x="220" y="570" as="targetPoint" />
          </mxGeometry>
        </mxCell>
        <mxCell id="qx9Za7n5SHYA4SdpHbom-103" value="" style="endArrow=none;html=1;rounded=0;strokeColor=#A8201A;fontColor=default;fillColor=#FAE5C7;entryX=0;entryY=0.5;entryDx=0;entryDy=0;exitX=0;exitY=0.5;exitDx=0;exitDy=0;labelBackgroundColor=none;" edge="1" parent="1" source="qx9Za7n5SHYA4SdpHbom-87" target="qx9Za7n5SHYA4SdpHbom-38">
          <mxGeometry width="50" height="50" relative="1" as="geometry">
            <mxPoint x="360" y="450" as="sourcePoint" />
            <mxPoint x="410" y="400" as="targetPoint" />
            <Array as="points">
              <mxPoint x="410" y="310" />
            </Array>
          </mxGeometry>
        </mxCell>
        <mxCell id="qx9Za7n5SHYA4SdpHbom-107" value="" style="endArrow=none;html=1;rounded=0;strokeColor=#A8201A;fontColor=#143642;fillColor=#FAE5C7;exitX=1;exitY=0.5;exitDx=0;exitDy=0;entryX=1;entryY=0.5;entryDx=0;entryDy=0;" edge="1" parent="1" source="qx9Za7n5SHYA4SdpHbom-29" target="qx9Za7n5SHYA4SdpHbom-16">
          <mxGeometry width="50" height="50" relative="1" as="geometry">
            <mxPoint x="350" y="350" as="sourcePoint" />
            <mxPoint x="400" y="300" as="targetPoint" />
            <Array as="points">
              <mxPoint x="410" y="260" />
            </Array>
          </mxGeometry>
        </mxCell>
        <mxCell id="qx9Za7n5SHYA4SdpHbom-108" value="" style="endArrow=none;html=1;rounded=0;strokeColor=#A8201A;fontColor=#143642;fillColor=#FAE5C7;entryX=0;entryY=0.5;entryDx=0;entryDy=0;exitX=1;exitY=0.5;exitDx=0;exitDy=0;" edge="1" parent="1" source="qx9Za7n5SHYA4SdpHbom-18" target="qx9Za7n5SHYA4SdpHbom-86">
          <mxGeometry width="50" height="50" relative="1" as="geometry">
            <mxPoint x="370" y="170" as="sourcePoint" />
            <mxPoint x="420" y="120" as="targetPoint" />
          </mxGeometry>
        </mxCell>
      </root>
    </mxGraphModel>
  </diagram>
</mxfile>
